<svg xmlns="http://www.w3.org/2000/svg" viewBox="0 0 788.07 281.58"><defs><style>.cls-1{fill:#223261;}.cls-2{fill:#00509b;}</style></defs><g id="Capa_2" data-name="Capa 2"><g id="Capa_1-2" data-name="Capa 1"><path class="cls-1" d="M159,112c-2.66-9.72-7.06-18.31-15.72-24.1-6-4-12.72-6.22-19.68-7.77C107.34,76.53,90.79,76,74.19,76.3c-13,.27-26,1.3-38.71,4.63-14,3.66-22.41,12.48-25.72,26.46a97.56,97.56,0,0,0-2.39,19.85c-.06,1.91.54,2.33,2.35,2.32,12.71-.07,25.41-.09,38.12,0,2.18,0,2.92-.5,3-2.78.49-9.33,5.07-16.14,13.95-19.1,14.06-4.7,28.29-4,42.31.48,5.32,1.68,8.42,5.84,10.15,11.06a41.27,41.27,0,0,1,2,9.65c1.06,12.6.34,25.22.53,37.84a.63.63,0,0,1-.54.7c-.12-.07-.33-.12-.39-.24-4.28-8.13-11.36-12.85-19.86-15.24-22.45-6.3-45-6.48-67.25.8A43.36,43.36,0,0,0,8.69,170.09C4.43,176.45,2.17,183.54,1,191c-.09.53.56,1.79-.95,1.51H0v19.8c.82.6.8.61,1,1.84,2.69,18.26,12.19,31.31,29.73,37.73,18.24,6.67,37,6.79,55.85,3.17,14.53-2.79,26.7-9.42,33.71-23.29.22-.44.47-1,1.07-.75s.45,1,.4,1.51c-.53,6.66-1,13.32-1.7,20-.23,2.17.11,2.83,2.44,2.81q18.56-.18,37.13,0c2.31,0,2.64-.72,2.64-2.78q-.09-56.67-.06-113.34C162.19,130,161.48,120.93,159,112ZM101.7,226.24c-10,2.88-20.2,2.74-30.44,2.18a88.39,88.39,0,0,1-12.74-1.7c-8.24-1.67-12.94-6.68-14.46-14.88a58.79,58.79,0,0,1-1-11.31c.08-11.36,6.15-19.14,17.44-22.24,2.39-.65,4.82-1.12,7.26-1.54A67.92,67.92,0,0,1,79.62,176h0c7.37,0,14.69.57,21.77,2.76,8.93,2.76,16.08,7.71,18.12,17.41C122.25,209.22,118,221.54,101.7,226.24Z"/><path class="cls-1" d="M334.23,119.6c-3.37-19.45-13.77-33.13-32.89-39.27-15.3-4.92-31-5.37-46.7-2.36-17.27,3.31-30.06,12.56-36.95,29.15a1.13,1.13,0,0,1-1,.89h0c-.66-.84-.3-1.68-.26-2.45.43-8.24.85-16.47,1.41-24.7.14-2-.2-2.69-2.39-2.67q-18.57.17-37.13,0c-2.07,0-2.41.67-2.41,2.52q.08,86,0,172c0,2,.44,2.64,2.54,2.62,12.38-.1,24.76-.12,37.13,0,2.38,0,2.78-.74,2.78-2.9q-.09-51-.05-102a59.3,59.3,0,0,1,1.07-12.05c2.29-11.28,8-20.1,18.93-24.58A57.77,57.77,0,0,1,276.88,112c8.46,2.4,13.86,8.19,15.15,17.09a106.94,106.94,0,0,1,1.05,15.29q0,54.19,0,108.39c0,2,.49,2.6,2.57,2.59q18.43-.17,36.88,0c2.3,0,3-.42,3-2.9q-.13-58-.07-116.07A99.07,99.07,0,0,0,334.23,119.6Z"/><path class="cls-1" d="M453.08,80.78c0-2-.46-2.61-2.55-2.59-13.11.1-26.23,0-39.35,0-1.14,0-2.28.29-2.22-1.62.24-7.66-.32-15.33.42-23,1.12-11.55,7.78-18.94,19.13-21.2,6.76-1.35,13.46-.8,20.14.58,3.07.63,3.07.62,3.07-2.4,0-7.67,0-15.35,0-23,0-2.28,1-5.18-.45-6.67S447,.31,444.83.24C429.39-.29,414-.29,398.92,3.94c-8,2.25-15.36,5.59-20.83,12.13-6.31,7.55-8.86,16.62-10.28,26.1-1.65,11.07-1.08,22.23-1.09,33.36,0,2.07-.36,2.83-2.66,2.77-6.76-.18-13.53,0-20.3-.1-1.59,0-2.14.39-2.12,2.06q.11,14.1,0,28.21c0,1.71.57,2,2.12,2,6.76-.07,13.54.08,20.29-.09,2.25-.06,2.68.6,2.68,2.73-.08,23.26-.05,46.52-.05,69.78h0c0,23.18,0,46.36,0,69.54,0,2.16.4,2.93,2.79,2.9q18.18-.21,36.38,0c2.48,0,3.27-.49,3.26-3.16-.09-46.36-.05-92.72-.12-139.07,0-2.18.51-2.73,2.71-2.71,12.95.11,25.9,0,38.85.1,2,0,2.64-.34,2.6-2.49Q452.9,94.4,453.08,80.78Z"/><polygon class="cls-1" points="487.01 87.54 487.02 87.53 487.01 87.53 487.01 87.54"/><path class="cls-1" d="M460.75,221.56h0Z"/><path class="cls-1" d="M786.11,193.23q-20.65.08-41.32,0c-1.62,0-2.15.49-2.28,2.05-.24,2.87-.62,5.73-1,8.58-1.68,11.3-6,15.78-17.26,17.83a113.91,113.91,0,0,1-26.15,1.21c-7.34-.37-14.62-1.17-21.56-3.87a17.85,17.85,0,0,1-11.18-11.73c-.55-1.71-1.05-3.44-1.58-5.18h0c-.26.13-.45.16-.52.27-8.59,12.73-17.58,25.14-28.49,36-.91.91-.58,1.54.27,2.22a45.28,45.28,0,0,0,6.09,4.22c10.86,6.08,22.77,8.57,34.95,10a240.59,240.59,0,0,0,50.62.48c12-1.13,23.86-3.29,34.93-8.38,12.17-5.59,21-14.15,23.81-27.78a151.81,151.81,0,0,0,2.67-24.06C788.14,193.47,787.55,193.22,786.11,193.23Z"/><path class="cls-1" d="M699.11,110c7.63-.34,15.15.27,22.36,2.91,9.17,3.36,16.15,8.92,18.09,19.13.26,1.39,1.08,1.2,2,1.2,14,0,28.05,0,42.08,0,1.58,0,1.92-.46,1.81-2a103.74,103.74,0,0,0-2.24-15.4c-3.65-15.67-11.94-27.3-27.86-32.5-19.46-6.34-39.55-6.7-59.91-6.7A94.74,94.74,0,0,1,699,101.23C699,104.15,698.54,107.08,699.11,110Z"/><polygon class="cls-1" points="699.13 110.05 699.12 110.05 699.12 110.06 699.13 110.05"/><path class="cls-1" d="M699.12,110.05a.13.13,0,0,0,0-.06h-.05Z"/><path class="cls-2" d="M694.72,74.58a78.52,78.52,0,0,0-25-36.41C647.23,19.64,621.2,14.54,593,18.57c-26,3.71-48.72,14.84-69.3,30.73A181.34,181.34,0,0,0,487,87.53c1.47-.12,1.48-.1,2.26-.76a58.91,58.91,0,0,1,18.57-10.62c23.45-8.19,47.27-8,71.19-2.62A37.55,37.55,0,0,1,598.7,84.35c6,6.49,8,14.52,8,23,.12,30.85.09,61.7.12,92.55,0,8.82,0,17.65.12,26.47a23.51,23.51,0,0,0,1.25,8.27,6.76,6.76,0,0,0,5.45,4.48c5.77,1.08,9.37-1.95,12.37-6.3a2.73,2.73,0,0,0,.11-3.34,61.24,61.24,0,0,1-6-14.88c-3.67-13.46-4.87-27.24-5.17-41.12-.39-18.52.43-36.92,5.23-55,4.88-18.34,15.8-30.71,34.33-36.16,12.62-3.71,25.51-5.13,38.56-5.6C695,76.73,695.34,76.43,694.72,74.58Z"/><path class="cls-2" d="M486.25,168.06c13.51-9.12,28.74-13.78,44.59-16.65A228.15,228.15,0,0,1,570,148c1.31,0,2.31.1,2.3-1.85-.11-13.85.07-27.71-.14-41.56-.18-12.34-6.78-20.63-18.63-24a52.55,52.55,0,0,0-19.62-1.46c-9.21.83-18.36,2.06-26.86,6.09-2.86,1.35-5.48,3.07-7,6s-1.22,4.37,1.38,6.35c1.19.9,2.41,1.74,3.58,2.66a18.27,18.27,0,0,1,7.38,16.16c-.44,8.66-7.2,16.18-15.62,17.28-9.47,1.25-17.29-3.72-20-12.75a29.42,29.42,0,0,1-1.15-7.3c-.12-3,.55-6,.82-9-20.2,37-28.53,75.56-15.64,117,.85-1.39.52-2.84.36-4.25a43,43,0,0,1,.43-11.83C464.06,189.25,472.87,177.1,486.25,168.06Z"/><path class="cls-2" d="M570.49,157.35c-13.89.36-27.66,1.54-41.06,5.48a65.28,65.28,0,0,0-18.59,8.51c-17.34,11.8-19.29,31-14.59,45.54,3.49,10.78,10.92,17.84,22,20.32,14,3.13,27.1.9,39.13-7.4,9.59-6.61,14.55-15.48,14.7-27.05.09-7,0-14,0-21h.12c0-7.42,0-14.85,0-22.27C572.24,158.19,572.3,157.3,570.49,157.35Z"/><path class="cls-2" d="M589,253.2c-10.09-4.64-14.08-13.8-16.41-24.31h0c-12.9,15.3-29.15,23.82-48.52,26.12-18.9,2.24-37.12.67-52.83-12a11.7,11.7,0,0,0,1.61,2.72c21.41,29,50.27,39.86,85.44,34.57,20.81-3.13,39.23-12.14,56.16-24.41a12.15,12.15,0,0,0,3.55-3.49C608.41,256.23,598.68,257.65,589,253.2Z"/><path class="cls-2" d="M677.23,113.25c-6.2,2.15-10.41,6.16-12.15,12.59-.48,1.74-1.05,3.47-1.36,5.25-3.48,19.79-3.27,39.69-1.66,59.62a51.88,51.88,0,0,0,1.8,10.71c2.8-4.61,5.43-8.77,7.89-13,11.41-19.63,20.52-40.19,24.89-62.6,1-5.21,1.62-10.51,2.41-15.76A65.2,65.2,0,0,0,677.23,113.25Z"/><path class="cls-1" d="M699.06,110v0h.07l-.06,0Z"/></g></g></svg>